<svg id="google" xmlns="http://www.w3.org/2000/svg" width="74.928" height="74.928" viewBox="0 0 74.928 74.928">
  <path id="Shape" d="M44.965,15.027a43.071,43.071,0,0,0-.681-7.663H9V21.855H29.162a17.234,17.234,0,0,1-7.476,11.307v9.4H33.795c7.084-6.522,11.171-16.126,11.171-27.536Z" transform="translate(28.464 23.289)" fill="#4285f4" fill-rule="evenodd"/>
  <path id="Shape-2" data-name="Shape" d="M34.437,41.056c10.115,0,18.6-3.355,24.795-9.077l-12.108-9.4a22.517,22.517,0,0,1-12.687,3.576A22.327,22.327,0,0,1,13.474,10.71H.957v9.707A37.45,37.45,0,0,0,34.437,41.056Z" transform="translate(3.028 33.872)" fill="#34a853" fill-rule="evenodd"/>
  <path id="Shape-3" data-name="Shape" d="M16.5,28.9a22.149,22.149,0,0,1,0-14.236V4.958H3.985a37.511,37.511,0,0,0,0,33.649L16.5,28.9Z" transform="translate(0 15.681)" fill="#fbbc05" fill-rule="evenodd"/>
  <path id="Shape-4" data-name="Shape" d="M34.437,14.9a20.239,20.239,0,0,1,14.322,5.6L59.5,9.758A36,36,0,0,0,34.437,0,37.45,37.45,0,0,0,.957,20.639l12.516,9.707A22.327,22.327,0,0,1,34.437,14.9Z" transform="translate(3.028)" fill="#ea4335" fill-rule="evenodd"/>
  <path id="Shape-5" data-name="Shape" d="M0,0H74.928V74.928H0Z" fill="none" fill-rule="evenodd"/>
</svg>
