<svg width="13" height="8" viewBox="0 0 13 8" fill="none" xmlns="http://www.w3.org/2000/svg">
<path d="M8.40026 4.96448H7.8274C7.75143 4.96448 7.67858 4.99063 7.62486 5.03718C7.57115 5.08373 7.54097 5.14687 7.54097 5.2127V6.95027H1.81235V1.98579H4.39023C4.46619 1.98579 4.53905 1.95964 4.59276 1.91309C4.64648 1.86654 4.67666 1.8034 4.67666 1.73757V1.24112C4.67666 1.17529 4.64648 1.11215 4.59276 1.0656C4.53905 1.01905 4.46619 0.992895 4.39023 0.992895H1.52592C1.29802 0.992895 1.07946 1.07135 0.918307 1.211C0.757158 1.35066 0.666626 1.54007 0.666626 1.73757V7.19849C0.666626 7.39599 0.757158 7.5854 0.918307 7.72505C1.07946 7.86471 1.29802 7.94316 1.52592 7.94316H7.8274C8.0553 7.94316 8.27386 7.86471 8.43501 7.72505C8.59616 7.5854 8.68669 7.39599 8.68669 7.19849V5.2127C8.68669 5.14687 8.65651 5.08373 8.6028 5.03718C8.54908 4.99063 8.47623 4.96448 8.40026 4.96448ZM9.40277 0H7.11132C6.72876 0 6.53756 0.401968 6.80699 0.636074L7.44662 1.19039L3.08339 4.97022C3.04333 5.00481 3.01155 5.04591 2.98987 5.09117C2.96818 5.13643 2.95702 5.18495 2.95702 5.23396C2.95702 5.28296 2.96818 5.33148 2.98987 5.37674C3.01155 5.422 3.04333 5.4631 3.08339 5.49769L3.48922 5.84877C3.52914 5.88349 3.57657 5.91103 3.62879 5.92982C3.68102 5.94861 3.73701 5.95829 3.79356 5.95829C3.8501 5.95829 3.9061 5.94861 3.95832 5.92982C4.01054 5.91103 4.05797 5.88349 4.09789 5.84877L8.45898 2.06833L12.6501 3.54222C12.9186 3.77493 9.83241 2.69168 9.83241 2.35813V0.372336C9.83241 0.273586 9.78715 0.178881 9.70657 0.109055C9.626 0.0392281 9.51672 0 9.40277 0Z" fill="white"/>
</svg>
