<svg width="20" height="21" viewBox="0 0 20 21" fill="none" xmlns="http://www.w3.org/2000/svg">
<path d="M10 0.0540771C4.48 0.0540771 0 4.65516 0 10.3243C0 15.9935 4.48 20.5946 10 20.5946C15.52 20.5946 20 15.9935 20 10.3243C20 4.65516 15.52 0.0540771 10 0.0540771ZM10 3.13516C11.66 3.13516 13 4.51137 13 6.21624C13 7.9211 11.66 9.29732 10 9.29732C8.34 9.29732 7 7.9211 7 6.21624C7 4.51137 8.34 3.13516 10 3.13516ZM10 17.7189C7.5 17.7189 5.29 16.4043 4 14.4119C4.03 12.3681 8 11.2487 10 11.2487C11.99 11.2487 15.97 12.3681 16 14.4119C14.71 16.4043 12.5 17.7189 10 17.7189Z" fill="#4267B2"/>
</svg>
